<svg width="88" height="88" viewBox="0 0 88 88" fill="none" xmlns="http://www.w3.org/2000/svg">
<g id="Bot&#195;&#163;o flutuante" filter="url(#filter0_d_6_1517)">
<g id="Ellipse 2" filter="url(#filter1_d_6_1517)">
<circle cx="44" cy="40" r="28" fill="#4894FF"/>
</g>
<g id="maisicone">
<path id="maisstroke1" fill-rule="evenodd" clip-rule="evenodd" d="M44 32C44.5523 32 45 32.4477 45 33V47C45 47.5523 44.5523 48 44 48C43.4477 48 43 47.5523 43 47V33C43 32.4477 43.4477 32 44 32Z" fill="white"/>
<path id="maisstroke2" fill-rule="evenodd" clip-rule="evenodd" d="M36 40C36 39.4477 36.4477 39 37 39H51C51.5523 39 52 39.4477 52 40C52 40.5523 51.5523 41 51 41H37C36.4477 41 36 40.5523 36 40Z" fill="white"/>
</g>
</g>
</svg>
